<svg xmlns="http://www.w3.org/2000/svg" viewBox="0 0 760 380" fill="none">
  <g stroke="#1F6B59" stroke-opacity=".14">
    <path d="M-30 292C76 235 101 91 241 92c105 1 111 96 207 85 112-13 105-128 245-137 66-5 105 14 132 37"/>
    <path d="M-12 321C105 271 124 129 248 126c101-2 126 88 211 76 118-16 122-123 246-131 61-4 105 11 140 34"/>
    <path d="M14 350c130-43 143-180 244-183 94-3 132 78 211 66 121-18 141-116 246-123 55-4 101 8 140 29"/>
    <path d="M70 382c127-40 138-174 208-176 79-2 129 73 203 59 118-21 148-106 244-113 48-3 91 6 130 24"/>
  </g>
  <path d="M105 306c39-38 58-115 126-139 83-29 133 58 226 45 98-14 138-84 234-102" stroke="#1F6B59" stroke-width="2"/>
  <g fill="#FBFDFB" stroke="#1F6B59" stroke-width="2"><circle cx="105" cy="306" r="6"/><circle cx="231" cy="167" r="6"/><circle cx="457" cy="212" r="6"/></g>
  <circle cx="691" cy="110" r="7" fill="#1F6B59"/>
</svg>
